<svg width="724" height="703" viewBox="0 0 724 703" fill="none" xmlns="http://www.w3.org/2000/svg">
<line x1="551.76" y1="2.18557e-08" x2="551.76" y2="454.102" stroke="white"/>
<line x1="438.234" y1="2.18557e-08" x2="438.234" y2="454.102" stroke="white"/>
<line x1="513.918" y1="2.18557e-08" x2="513.918" y2="454.102" stroke="white"/>
<line x1="476.076" y1="2.18557e-08" x2="476.076" y2="454.102" stroke="white"/>
<line x1="400.393" y1="2.18557e-08" x2="400.393" y2="454.102" stroke="white"/>
<line x1="362.551" y1="2.18557e-08" x2="362.551" y2="454.102" stroke="white"/>
<line x1="324.709" y1="2.18557e-08" x2="324.709" y2="454.102" stroke="white"/>
<line x1="286.867" y1="2.18557e-08" x2="286.867" y2="454.102" stroke="white"/>
<line x1="249.025" y1="2.18557e-08" x2="249.025" y2="454.102" stroke="white"/>
<line x1="211.184" y1="2.18557e-08" x2="211.184" y2="454.102" stroke="white"/>
<line x1="173.342" y1="2.18557e-08" x2="173.342" y2="454.102" stroke="white"/>
<line x1="135" y1="37.3418" x2="589.102" y2="37.3418" stroke="white"/>
<line x1="135" y1="75.1836" x2="589.102" y2="75.1836" stroke="white"/>
<line x1="135" y1="113.025" x2="589.102" y2="113.025" stroke="white"/>
<line x1="135" y1="150.867" x2="589.102" y2="150.867" stroke="white"/>
<line x1="135" y1="188.709" x2="589.102" y2="188.709" stroke="white"/>
<line x1="135" y1="226.551" x2="589.102" y2="226.551" stroke="white"/>
<line x1="135" y1="264.393" x2="589.102" y2="264.393" stroke="white"/>
<line x1="135" y1="302.235" x2="589.102" y2="302.235" stroke="white"/>
<line x1="135" y1="340.076" x2="589.102" y2="340.076" stroke="white"/>
<line x1="135" y1="377.918" x2="589.102" y2="377.918" stroke="white"/>
<line x1="135" y1="415.76" x2="589.102" y2="415.76" stroke="white"/>
<circle cx="362.877" cy="159.5" r="149.5" fill="#A5BC00"/>
<path d="M310.097 195.632C311.103 193.299 314.153 194.562 321.367 189.854C324.407 187.981 327.029 185.505 329.073 182.578C330.796 180.01 330.346 179.518 331.427 178.223C334.563 174.467 340.664 175.709 350.553 176.083C353.421 176.19 349.889 175.976 370.674 175.441C380.039 175.206 384.866 175.141 388.654 171.589C390.442 169.92 391.266 168.154 392.507 168.379C394.648 168.775 394.059 174.596 397.109 181.54C400.16 188.484 403.328 188.292 404.066 192.133C405.864 201.474 389.082 212.57 379.664 217.171C371.437 221.532 362.215 223.671 352.908 223.377C344.803 222.917 336.904 220.65 329.79 216.743C319.226 211.008 307.989 200.479 310.097 195.632Z" fill="#F5F4F3"/>
<path d="M319.441 188.848C318.088 189.416 316.803 190.134 315.61 190.988C314.711 191.63 314.539 191.833 313.951 192.325C311.671 194.059 310.258 193.759 307.026 195.214C306.009 195.664 306.48 195.546 302.98 197.515C302.98 197.515 300.465 198.927 297.843 200.297C293.239 202.705 288.492 204.831 283.63 206.663C274.982 209.788 272.606 209.049 262.846 212.869C261.002 213.519 259.212 214.313 257.494 215.245C252.554 218.274 248.561 222.626 245.967 227.807C244.341 230.856 245.4 229.893 241.601 238.902C240.291 242.257 238.716 245.502 236.892 248.607C235.876 250.376 234.769 252.09 233.574 253.743C231.615 256.279 230.652 256.814 230.363 258.451C230.235 259.339 230.631 260.698 231.433 263.405C231.871 264.836 232.228 266.29 232.504 267.76C232.628 268.286 232.678 268.826 232.653 269.365C232.547 270.495 232.129 271.574 231.444 272.479C230.556 273.784 230.813 274.063 229.207 278.375C220.196 302.621 219.81 303.53 219.81 303.53C218.922 305.67 217.809 308.153 218.494 311.085C219.061 313.492 220.634 315.365 222.165 317.162C223.513 318.756 223.899 318.767 224.091 318.724C225.611 318.382 224.177 312.197 226.66 310.667C228.394 309.597 231.219 311.331 232.771 312.229C238.465 315.546 245.058 317.023 251.137 319.559C252.967 320.319 266.773 326.065 271.675 328.429C273.022 329.082 274.327 329.818 275.582 330.633C276.627 331.163 277.575 331.865 278.386 332.709C279.756 334.453 279.52 336.797 279.381 337.92C279.381 337.92 272.531 396.578 273.57 415.42C273.869 420.77 274.319 426.43 274.319 426.43C274.715 431.245 274.907 433.653 275.186 436.06C275.903 442.373 276.256 442.481 275.924 443.85C274.854 448.922 270.305 448.815 268.721 453.202C266.838 458.434 272.446 460.852 273.088 470.119C273.088 470.44 273.088 470.333 270.84 484.617C269.577 492.653 269.406 493.755 268.925 496.537C267.619 504.027 267.405 504.091 267.469 504.947C268.218 514.277 294.846 519.606 298.721 520.355C337.133 527.759 356.333 531.451 376.636 531.911C382.319 532.039 444.78 533.345 447.701 519.499C448.055 517.851 447.466 516.353 447.701 503.61C447.755 500.4 447.83 498.773 447.755 495.745C447.724 491.752 447.42 487.766 446.845 483.815C446.653 482.877 446.51 481.931 446.417 480.979C446.182 476.442 448.258 474.934 448.558 471.991C449.082 466.748 443.131 465.239 442.939 459.526C442.842 456.444 444.533 455.524 446.738 451.126C448.065 448.483 447.883 447.916 451.019 428.474C451.019 428.474 452.528 418.951 453.941 413.409C454.872 409.792 454.872 409.771 454.872 409.771C455.253 408.789 455.515 407.765 455.653 406.721C455.728 405.031 454.958 404.003 454.444 402.794C453.192 399.905 453.866 397.241 453.962 395.818C454.54 387.194 437.673 363.632 437.598 339.45C437.596 336.246 437.883 333.048 438.454 329.895C441.341 329.724 444.206 329.294 447.016 328.611C455.942 326.471 460.759 322.576 471.14 316.06C490.833 303.68 493.348 304.825 494.108 305.499C496.495 307.639 493.38 315.429 494.665 315.825C494.975 315.91 495.307 315.525 496.259 314.519C499.074 311.577 497.865 313.246 500.54 310.378C505.699 304.718 505.785 303.274 505.72 302.503C505.662 301.972 505.524 301.453 505.314 300.962C504.243 297.988 505.142 299.892 502.552 291.6C500.701 285.704 499.78 282.751 499.213 281.692C496.966 277.487 495.692 277.722 495.168 274.972C494.472 271.355 496.377 269.494 494.825 266.765C494.076 265.438 493.434 265.556 492.128 263.555C491.301 262.195 490.66 260.731 490.223 259.2C489.371 256.836 488.656 254.424 488.082 251.978C486.712 245.44 484.69 235.832 479.841 228.491C477.08 224.318 474.116 221.954 470.851 219.343C462.846 212.923 454.123 209.82 446.428 207.049C444.501 206.353 443.538 205.979 442.361 205.679C438.658 204.609 437.32 204.791 434.997 203.635C433.779 202.936 432.623 202.134 431.54 201.238C427.356 198.093 427.345 197.376 425.044 196.252C423.503 195.516 421.868 194.997 420.185 194.711C419.121 194.552 418.049 194.449 416.974 194.401C412.907 193.92 408.348 190.902 405.769 187.147C404.934 185.927 404.302 184.621 403.628 184.75C402.954 184.878 402.986 186.323 401.487 189.19C401.348 189.478 401.191 189.757 401.017 190.025C399.408 192.49 397.62 194.832 395.665 197.033C392.626 200.415 391.095 202.105 390.817 202.383C388.163 204.999 385.271 207.363 382.18 209.445C373.875 215.148 367.967 219.214 360.85 220.145C344.721 222.285 329.02 207.434 322.17 194.829C321.113 192.906 320.201 190.907 319.441 188.848Z" fill="#F5F4F3"/>
<path d="M319.441 188.848C318.088 189.416 316.803 190.134 315.61 190.988C314.711 191.63 314.539 191.833 313.951 192.325C311.671 194.059 310.258 193.759 307.026 195.214C306.009 195.664 306.48 195.546 302.98 197.515C302.98 197.515 300.465 198.927 297.843 200.297C293.239 202.705 288.492 204.831 283.63 206.663C274.982 209.788 272.606 209.049 262.846 212.869C261.002 213.519 259.212 214.313 257.494 215.245C252.554 218.274 248.561 222.626 245.967 227.807C244.341 230.856 245.4 229.893 241.601 238.902C240.291 242.257 238.716 245.502 236.892 248.607C235.876 250.376 234.769 252.09 233.574 253.743C231.615 256.279 230.652 256.814 230.363 258.451C230.235 259.339 230.631 260.698 231.433 263.405C231.871 264.836 232.228 266.29 232.504 267.76C232.628 268.286 232.678 268.826 232.653 269.365C232.547 270.495 232.129 271.574 231.444 272.479C230.556 273.784 230.813 274.063 229.207 278.375C220.196 302.621 219.81 303.53 219.81 303.53C218.922 305.67 217.809 308.153 218.494 311.085C219.061 313.492 220.634 315.365 222.165 317.162C223.513 318.756 223.899 318.767 224.091 318.724C225.611 318.382 224.177 312.197 226.66 310.667C228.394 309.597 231.219 311.331 232.771 312.229C238.465 315.546 245.058 317.023 251.137 319.559C252.967 320.319 266.773 326.065 271.675 328.429C273.022 329.082 274.327 329.818 275.582 330.633C276.627 331.163 277.575 331.865 278.386 332.709C279.756 334.453 279.52 336.797 279.381 337.92C279.381 337.92 272.531 396.578 273.57 415.42C273.869 420.77 274.319 426.43 274.319 426.43C274.715 431.245 274.907 433.653 275.186 436.06C275.903 442.373 276.256 442.481 275.924 443.85C274.854 448.922 270.305 448.815 268.721 453.202C266.838 458.434 272.446 460.852 273.088 470.119C273.088 470.44 273.088 470.333 270.84 484.617C269.577 492.653 269.406 493.755 268.925 496.537C267.619 504.027 267.405 504.091 267.469 504.947C268.218 514.277 294.846 519.606 298.721 520.355C337.133 527.759 356.333 531.451 376.636 531.911C382.319 532.039 444.78 533.345 447.701 519.499C448.055 517.851 447.466 516.353 447.701 503.61C447.755 500.4 447.83 498.773 447.755 495.745C447.724 491.752 447.42 487.766 446.845 483.815C446.653 482.877 446.51 481.931 446.417 480.979C446.182 476.442 448.258 474.934 448.558 471.991C449.082 466.748 443.131 465.239 442.939 459.526C442.842 456.444 444.533 455.524 446.738 451.126C448.065 448.483 447.883 447.916 451.019 428.474C451.019 428.474 452.528 418.951 453.941 413.409C454.872 409.792 454.872 409.771 454.872 409.771C455.253 408.789 455.515 407.765 455.653 406.721C455.728 405.031 454.958 404.003 454.444 402.794C453.192 399.905 453.866 397.241 453.962 395.818C454.54 387.194 437.673 363.632 437.598 339.45C437.596 336.246 437.883 333.048 438.454 329.895C441.341 329.724 444.206 329.294 447.016 328.611C455.942 326.471 460.759 322.576 471.14 316.06C490.833 303.68 493.348 304.825 494.108 305.499C496.495 307.639 493.38 315.429 494.665 315.825C494.975 315.91 495.307 315.525 496.259 314.519C499.074 311.577 497.865 313.246 500.54 310.378C505.699 304.718 505.785 303.274 505.72 302.503C505.662 301.972 505.524 301.453 505.314 300.962C504.243 297.988 505.142 299.892 502.552 291.6C500.701 285.704 499.78 282.751 499.213 281.692C496.966 277.487 495.692 277.722 495.168 274.972C494.472 271.355 496.377 269.494 494.825 266.765C494.076 265.438 493.434 265.556 492.128 263.555C491.301 262.195 490.66 260.731 490.223 259.2C489.371 256.836 488.656 254.424 488.082 251.978C486.712 245.44 484.69 235.832 479.841 228.491C477.08 224.318 474.116 221.954 470.851 219.343C462.846 212.923 454.123 209.82 446.428 207.049C444.501 206.353 443.538 205.979 442.361 205.679C438.658 204.609 437.32 204.791 434.997 203.635C433.779 202.936 432.623 202.134 431.54 201.238C427.356 198.093 427.345 197.376 425.044 196.252C423.503 195.516 421.868 194.997 420.185 194.711C419.121 194.552 418.049 194.449 416.974 194.401C412.907 193.92 408.348 190.902 405.769 187.147C404.934 185.927 404.302 184.621 403.628 184.75C402.954 184.878 402.986 186.323 401.487 189.19C401.348 189.478 401.191 189.757 401.017 190.025C399.408 192.49 397.62 194.832 395.665 197.033C392.626 200.415 391.095 202.105 390.817 202.383C388.163 204.999 385.271 207.363 382.18 209.445C373.875 215.148 367.967 219.214 360.85 220.145C344.721 222.285 329.02 207.434 322.17 194.829C321.113 192.906 320.201 190.907 319.441 188.848Z" fill="#F5F4F3"/>
<path d="M387.115 469.862C384.818 472.002 382.371 473.976 379.794 475.768C374.119 479.942 367.905 483.329 361.321 485.837C357.07 487.444 352.62 488.466 348.093 488.876C346.734 488.983 346.712 491.123 348.093 491.016C356.203 490.198 364.056 487.71 371.157 483.708C376.444 480.854 381.431 477.477 386.044 473.628C386.922 472.901 387.8 472.162 388.634 471.381C389.63 470.429 388.121 468.91 387.115 469.862Z" fill="#171B1B"/>
<path d="M278.119 214.817C277.883 222.061 277.701 229.316 277.83 236.57C277.824 238.454 277.921 240.336 278.119 242.209C278.119 242.493 278.231 242.765 278.432 242.966C278.633 243.166 278.905 243.279 279.189 243.279C279.473 243.279 279.745 243.166 279.946 242.966C280.146 242.765 280.259 242.493 280.259 242.209C279.897 238.297 279.794 234.365 279.949 230.439C279.949 226.159 280.027 221.879 280.184 217.599C280.184 216.679 280.184 215.748 280.259 214.828C280.259 213.447 278.119 213.447 278.119 214.828V214.817Z" fill="#171B1B"/>
<path d="M269.611 217.31C270.178 220.007 270.767 222.66 271.355 225.399C272.34 229.851 273.325 234.312 274.48 238.732C274.725 240.124 275.165 241.474 275.786 242.744C276.503 243.921 278.355 242.84 277.627 241.674C277.627 241.61 277.573 241.556 277.541 241.503C277.627 241.76 277.509 241.449 277.541 241.503C277.456 241.246 277.37 241.032 277.295 240.797C277.07 240.101 276.878 239.384 276.685 238.657C276.15 236.645 275.615 234.612 275.187 232.579C274.181 228.299 273.221 223.991 272.308 219.653C272.094 218.69 271.89 217.727 271.687 216.754C271.398 215.406 269.332 215.973 269.621 217.321L269.611 217.31Z" fill="#171B1B"/>
<path d="M236.347 264.508C239.868 267.718 243.314 271.088 246.728 274.448C253.15 280.772 259.507 287.213 265.329 294.104C267.969 297.016 270.29 300.201 272.254 303.605C272.907 304.815 274.759 303.745 274.106 302.535C272.361 299.492 270.325 296.625 268.027 293.975C265.169 290.509 262.14 287.181 259.058 283.917C253.417 277.936 247.563 272.147 241.612 266.498C240.371 265.321 239.119 264.133 237.867 262.978C236.85 262.036 235.33 263.545 236.347 264.486V264.508Z" fill="#171B1B"/>
<path d="M234.752 285.009C239.065 286.517 243.215 288.46 247.134 290.808C248.657 291.691 250.091 292.72 251.416 293.879C252.432 294.799 253.952 293.291 252.935 292.371C250.411 290.195 247.607 288.367 244.598 286.935C242.104 285.672 239.536 284.549 236.924 283.532C236.41 283.329 235.854 283.137 235.362 282.955C234.067 282.495 233.499 284.56 234.794 285.009H234.752Z" fill="#171B1B"/>
<path d="M246.054 306.569C249.265 308.431 252.336 310.379 255.429 312.358C261.052 315.839 266.469 319.64 271.654 323.743C272.842 324.717 274.009 325.712 275.101 326.792C275.54 327.231 275.968 327.681 276.374 328.151L276.653 328.483C276.702 328.537 276.749 328.595 276.792 328.654C276.931 328.858 277.081 329.061 277.209 329.275C277.937 330.441 279.788 329.371 279.061 328.205C277.699 326.252 276.046 324.52 274.159 323.069C271.633 320.929 268.968 318.949 266.26 317.045C261.155 313.439 255.889 310.058 250.56 306.794C249.425 306.099 248.28 305.414 247.135 304.729C246.89 304.601 246.606 304.573 246.34 304.65C246.075 304.726 245.85 304.903 245.712 305.142C245.574 305.381 245.533 305.664 245.599 305.932C245.665 306.2 245.831 306.432 246.064 306.58L246.054 306.569Z" fill="#171B1B"/>
<path d="M278.493 293.644L278.985 305.532L279.766 324.406L279.937 328.686C280.002 330.056 282.142 330.067 282.078 328.686L281.586 316.788L280.804 297.924L280.633 293.644C280.569 292.264 278.428 292.264 278.493 293.644Z" fill="#171B1B"/>
<path d="M292.149 310.368C289.055 314.083 286.358 318.11 284.1 322.384C283.389 323.649 282.89 325.023 282.623 326.45C282.586 326.586 282.576 326.727 282.593 326.867C282.611 327.006 282.655 327.141 282.725 327.263C282.795 327.386 282.888 327.493 282.999 327.579C283.11 327.666 283.237 327.729 283.373 327.766C283.645 327.842 283.936 327.807 284.183 327.669C284.43 327.53 284.612 327.3 284.689 327.028C285.031 324.471 286.615 322.074 287.975 319.902C289.441 317.569 291.046 315.311 292.705 313.118L293.155 312.519C293.315 312.326 293.069 312.636 293.208 312.455L293.369 312.251L293.658 311.887C293.758 311.788 293.838 311.67 293.892 311.539C293.946 311.409 293.974 311.269 293.974 311.128C293.974 310.986 293.946 310.847 293.892 310.716C293.838 310.586 293.758 310.468 293.658 310.368C293.457 310.169 293.186 310.057 292.903 310.057C292.621 310.057 292.349 310.169 292.149 310.368Z" fill="#171B1B"/>
<path d="M296.847 315.407C292.088 319.579 287.574 324.024 283.33 328.718C282.235 329.834 281.302 331.099 280.558 332.474C280.487 332.595 280.44 332.73 280.421 332.869C280.402 333.009 280.41 333.151 280.446 333.287C280.482 333.423 280.544 333.551 280.63 333.663C280.715 333.775 280.822 333.869 280.943 333.94C281.065 334.011 281.199 334.058 281.339 334.077C281.478 334.096 281.62 334.087 281.756 334.052C281.893 334.016 282.02 333.954 282.133 333.868C282.245 333.783 282.339 333.676 282.41 333.555C282.969 332.452 283.691 331.438 284.55 330.548C285.813 329.082 287.151 327.68 288.51 326.268C291.122 323.625 293.808 321.068 296.537 318.543C297.136 317.986 297.736 317.473 298.346 316.884C299.363 315.964 297.853 314.455 296.826 315.375L296.847 315.407Z" fill="#171B1B"/>
<path d="M379.847 290.487C378.284 293.911 376.882 297.41 375.565 300.93C372.823 307.844 370.594 314.95 368.898 322.191C367.962 326.047 367.456 329.994 367.389 333.961C367.389 334.245 367.501 334.517 367.702 334.718C367.903 334.919 368.175 335.031 368.459 335.031C368.743 335.031 369.015 334.919 369.216 334.718C369.416 334.517 369.529 334.245 369.529 333.961C369.575 330.595 369.966 327.243 370.696 323.957C371.466 320.223 372.483 316.542 373.618 312.893C375.533 306.783 377.781 300.77 380.264 294.864L380.339 294.692C380.467 294.393 380.264 294.885 380.339 294.596C380.339 294.489 380.435 294.382 380.478 294.264C380.521 294.147 380.681 293.794 380.788 293.547C380.895 293.301 381.099 292.809 381.27 292.477C381.441 292.146 381.538 291.846 381.677 291.536C381.817 291.291 381.855 291.002 381.783 290.729C381.711 290.457 381.534 290.224 381.291 290.081C381.047 289.94 380.757 289.902 380.484 289.974C380.212 290.046 379.979 290.223 379.836 290.466L379.847 290.487Z" fill="#171B1B"/>
<path d="M385.113 318.179C381.192 322.662 378.009 327.74 375.684 333.223C374.853 335.174 374.354 337.25 374.207 339.365C374.154 340.745 376.294 340.734 376.348 339.365C376.519 335.791 378.242 332.335 379.976 329.285C380.885 327.68 381.881 326.075 382.93 324.599C383.39 323.935 383.861 323.272 384.342 322.619L384.92 321.849L385.188 321.496L385.391 321.228C385.798 320.704 386.205 320.158 386.633 319.687C387.51 318.617 386.012 317.119 385.113 318.179Z" fill="#171B1B"/>
<path d="M427.71 304.6C425.983 308.281 424.285 311.98 422.615 315.696C419.683 322.17 416.771 328.665 414.053 335.234C413.047 337.427 412.217 339.695 411.57 342.018C411.249 343.356 413.314 343.923 413.625 342.585C414.171 340.613 414.865 338.686 415.701 336.818C416.943 333.758 418.216 330.805 419.543 327.755C422.198 321.688 424.895 315.654 427.699 309.64L429.529 305.67C429.669 305.426 429.708 305.136 429.636 304.864C429.563 304.591 429.387 304.358 429.144 304.215C428.899 304.075 428.609 304.036 428.337 304.109C428.064 304.181 427.831 304.357 427.688 304.6H427.71Z" fill="#171B1B"/>
<path d="M432.333 327.98C430.348 329.861 428.486 331.866 426.757 333.983C422.8 338.617 419.444 343.733 416.771 349.209C415.071 352.709 413.816 356.408 413.036 360.219C412.779 361.557 414.844 362.135 415.101 360.786C416.51 354.342 419.152 348.23 422.882 342.789C425.53 338.765 428.539 334.99 431.872 331.511C432.514 330.848 433.157 330.174 433.842 329.542C434.858 328.612 433.339 327.103 432.333 328.034V327.98Z" fill="#171B1B"/>
<path d="M404.763 404.528C401.991 409.054 399.144 413.537 396.275 417.999C391.224 425.853 386.108 433.739 380.521 441.165C379.344 442.737 378.166 444.257 376.829 445.808C376.315 446.397 375.758 446.985 375.234 447.542C375.009 447.777 374.774 448.002 374.538 448.216L374.206 448.505C374.142 448.569 373.778 448.858 374.078 448.622C373.956 448.693 373.85 448.787 373.764 448.899C373.679 449.011 373.617 449.139 373.581 449.275C373.545 449.412 373.537 449.554 373.556 449.693C373.575 449.833 373.622 449.967 373.693 450.088C373.838 450.332 374.073 450.509 374.348 450.579C374.623 450.649 374.915 450.608 375.159 450.463C377.465 448.481 379.511 446.216 381.249 443.722C383.989 440.17 386.6 436.489 389.094 432.786C391.834 428.774 394.509 424.708 397.142 420.631C399.283 417.271 401.423 413.894 403.564 410.498C404.57 408.904 405.704 407.288 406.571 405.673V405.609C407.288 404.432 405.437 403.351 404.72 404.539L404.763 404.528Z" fill="#171B1B"/>
<path d="M296.977 400.312C297.212 401.928 297.48 403.522 297.747 405.148C298.418 409.193 299.167 413.22 299.995 417.228C301.065 422.578 302.264 427.821 303.634 433.054C305.023 438.516 306.688 443.905 308.621 449.2C310.194 453.744 312.3 458.086 314.893 462.136C315.171 462.557 315.46 462.964 315.76 463.356C315.831 463.478 315.925 463.584 316.037 463.67C316.149 463.755 316.277 463.817 316.413 463.853C316.549 463.889 316.691 463.897 316.831 463.878C316.97 463.859 317.105 463.813 317.226 463.741C317.348 463.671 317.454 463.576 317.54 463.464C317.625 463.352 317.687 463.225 317.723 463.088C317.759 462.952 317.767 462.81 317.748 462.671C317.729 462.531 317.683 462.397 317.611 462.275C314.971 458.563 312.847 454.51 311.297 450.227C309.32 445.058 307.623 439.786 306.213 434.434C304.779 429.084 303.537 423.734 302.414 418.384C301.522 414.168 300.716 409.935 299.995 405.683C299.77 404.346 299.556 403.019 299.342 401.681C299.246 401.071 299.192 400.419 299.053 399.809C299.048 399.784 299.048 399.759 299.053 399.734C298.978 399.46 298.797 399.227 298.55 399.087C298.303 398.946 298.011 398.91 297.737 398.985C297.463 399.06 297.23 399.241 297.089 399.488C296.949 399.735 296.912 400.027 296.987 400.301L296.977 400.312Z" fill="#171B1B"/>
<path d="M307.208 487.175C305.051 484.194 303.174 481.02 301.6 477.694C299.32 473.222 297.244 468.664 295.179 464.073C293.113 459.483 291.122 454.636 289.185 449.874C287.623 446.03 286.088 442.17 284.583 438.297C283.877 436.499 283.213 434.691 282.507 432.947V432.861C282.43 432.588 282.248 432.355 282 432.216C281.752 432.076 281.459 432.041 281.185 432.118C280.911 432.194 280.679 432.377 280.539 432.624C280.4 432.872 280.364 433.165 280.441 433.439C281.008 434.927 281.576 436.414 282.153 437.901C283.58 441.589 285.036 445.266 286.52 448.933C288.468 453.748 290.469 458.534 292.524 463.292C294.569 467.99 296.677 472.665 298.946 477.202C300.607 480.743 302.536 484.152 304.715 487.399C304.918 487.688 305.132 487.966 305.346 488.245C305.417 488.366 305.511 488.473 305.623 488.558C305.735 488.643 305.863 488.706 305.999 488.742C306.135 488.777 306.277 488.786 306.417 488.767C306.556 488.748 306.691 488.701 306.812 488.63C307.055 488.487 307.232 488.254 307.304 487.981C307.376 487.709 307.338 487.419 307.198 487.175H307.208Z" fill="#171B1B"/>
<path d="M278.846 453.416C279.081 453.641 278.696 453.191 278.899 453.48L279.274 454.037C279.691 454.657 280.087 455.289 280.494 455.909C281.8 457.964 283.116 460.018 284.443 462.051C288.328 468.011 292.353 473.896 296.655 479.556C299.181 482.959 301.835 486.169 304.682 489.379C305.613 490.395 307.122 488.876 306.202 487.859C301.216 482.263 296.614 476.336 292.427 470.119C289.024 465.24 285.781 460.243 282.57 455.235C282.099 454.486 281.618 453.737 281.136 452.999C280.902 452.613 280.626 452.254 280.312 451.929C279.306 450.998 277.786 452.507 278.803 453.437L278.846 453.416Z" fill="#171B1B"/>
<path d="M279.531 482.113C281.543 484.114 283.683 486.008 285.834 487.859C290.349 491.788 295.158 495.365 300.219 498.559C303.144 500.42 306.236 502.003 309.455 503.289C309.591 503.326 309.732 503.336 309.872 503.319C310.012 503.301 310.146 503.256 310.269 503.187C310.391 503.117 310.498 503.024 310.584 502.913C310.671 502.802 310.734 502.675 310.772 502.54C310.809 502.404 310.819 502.262 310.801 502.123C310.784 501.983 310.739 501.849 310.67 501.727C310.6 501.604 310.507 501.497 310.396 501.411C310.285 501.324 310.158 501.261 310.022 501.224C304.383 498.845 299.094 495.709 294.3 491.904C290.415 488.998 286.686 485.891 283.127 482.595C282.42 481.942 281.714 481.279 280.986 480.605C280.781 480.429 280.518 480.338 280.249 480.348C279.979 480.359 279.724 480.47 279.533 480.661C279.343 480.851 279.231 481.107 279.221 481.376C279.21 481.645 279.302 481.909 279.477 482.113H279.531Z" fill="#171B1B"/>
<path d="M312.281 195.418C312.657 196.792 313.151 198.131 313.758 199.42C315.02 202.253 316.745 204.857 318.863 207.124C320.338 208.671 322.037 209.988 323.904 211.029C325.103 211.703 326.184 209.852 324.974 209.189C322.084 207.53 319.635 205.199 317.836 202.394C316.543 200.446 315.501 198.343 314.732 196.135C314.593 195.707 314.454 195.279 314.336 194.84C314.244 194.586 314.059 194.377 313.819 194.253C313.578 194.13 313.3 194.102 313.04 194.175C312.78 194.248 312.558 194.417 312.417 194.647C312.276 194.878 312.227 195.153 312.281 195.418Z" fill="#171B1B"/>
<path d="M329.245 215.577C331.041 217.463 332.996 219.193 335.089 220.745C339.397 224.156 344.294 226.749 349.537 228.395C352.915 229.419 356.451 229.821 359.972 229.583C361.342 229.476 361.353 227.336 359.972 227.443C349.709 228.213 339.905 222.649 332.595 215.865C331.964 215.288 331.343 214.688 330.765 214.057C329.834 213.041 328.314 214.56 329.245 215.577Z" fill="#171B1B"/>
<path d="M406.571 196.306C405.34 198.446 403.949 200.5 402.526 202.512C399.647 206.682 396.297 210.506 392.54 213.907C390.479 215.796 388.13 217.345 385.583 218.498C385.311 218.575 385.081 218.757 384.943 219.003C384.804 219.25 384.769 219.541 384.845 219.814C384.922 220.086 385.104 220.316 385.351 220.454C385.597 220.593 385.889 220.628 386.161 220.552C391.17 218.412 395.291 214.624 398.844 210.601C401.843 207.181 404.57 203.532 406.999 199.687C407.481 198.927 407.963 198.168 408.412 197.376C408.521 197.135 408.537 196.861 408.456 196.609C408.375 196.357 408.204 196.143 407.975 196.01C407.746 195.877 407.475 195.834 407.216 195.888C406.957 195.943 406.727 196.092 406.571 196.306Z" fill="#171B1B"/>
<path d="M393.428 242.744C395.247 239.994 396.938 237.148 398.565 234.291C401.783 228.839 404.505 223.109 406.699 217.171C407.807 214.304 408.436 211.275 408.561 208.204C408.561 207.92 408.449 207.648 408.248 207.448C408.047 207.247 407.775 207.134 407.491 207.134C407.207 207.134 406.935 207.247 406.734 207.448C406.534 207.648 406.421 207.92 406.421 208.204C406.32 210.762 405.822 213.289 404.944 215.694C403.963 218.622 402.791 221.481 401.434 224.254C399.009 229.241 396.315 234.091 393.364 238.785C392.764 239.759 392.165 240.722 391.544 241.674C390.784 242.819 392.615 243.899 393.385 242.744H393.428Z" fill="#171B1B"/>
<path d="M392.796 222.735C394.505 222.065 396.131 221.204 397.645 220.167C400.678 218.338 403.349 215.966 405.522 213.169C406.782 211.523 407.683 209.631 408.165 207.616C408.465 206.267 406.41 205.7 406.1 207.038C405.198 210.287 403.296 213.17 400.663 215.277C398.552 217.107 396.227 218.673 393.738 219.942L392.55 220.531C392.419 220.581 392.29 220.638 392.165 220.702C392.465 220.595 392.069 220.702 392.165 220.702C390.87 221.14 391.426 223.206 392.743 222.767L392.796 222.735Z" fill="#171B1B"/>
<path d="M424.005 203.935C421.865 205.85 419.724 207.862 417.584 209.895C413.81 213.443 410.38 217.341 407.341 221.536C406.008 223.207 405.131 225.194 404.794 227.304C404.698 228.673 406.838 228.663 406.935 227.304C406.935 227.229 406.935 227.154 406.935 227.09C406.935 227.389 406.935 227.09 406.935 227.036C406.935 226.983 407.02 226.672 407.074 226.49C407.127 226.309 407.181 226.159 407.234 225.998C407.288 225.838 407.309 225.795 407.352 225.699C407.277 225.881 407.352 225.613 407.416 225.56C407.84 224.681 408.327 223.833 408.872 223.024C410.215 221.06 411.696 219.193 413.303 217.438C416.407 213.939 419.724 210.654 423.171 207.487C423.909 206.802 424.658 206.118 425.418 205.444C426.488 204.534 424.937 203.025 423.909 203.935H424.005Z" fill="#171B1B"/>
<path d="M430.288 204.331C429.142 204.877 428.065 205.556 427.077 206.353C424.379 208.414 422.009 210.87 420.046 213.64C418.451 215.875 417.082 218.262 415.957 220.766C415.886 220.888 415.84 221.022 415.82 221.161C415.801 221.301 415.81 221.443 415.846 221.579C415.882 221.715 415.944 221.843 416.029 221.955C416.114 222.067 416.221 222.161 416.343 222.232C416.464 222.303 416.599 222.35 416.738 222.369C416.878 222.388 417.02 222.379 417.156 222.344C417.292 222.308 417.42 222.246 417.532 222.16C417.644 222.075 417.738 221.969 417.809 221.847C420.517 215.887 424.68 210.077 430.32 206.749C430.667 206.542 431.024 206.352 431.391 206.182C431.512 206.111 431.619 206.017 431.704 205.905C431.79 205.793 431.852 205.665 431.888 205.529C431.923 205.393 431.932 205.251 431.913 205.111C431.894 204.972 431.847 204.838 431.776 204.716C431.633 204.473 431.4 204.296 431.127 204.224C430.855 204.152 430.565 204.191 430.32 204.331H430.288Z" fill="#171B1B"/>
<path d="M441.997 232.718C440.724 236.484 439.589 240.294 438.508 244.114C436.325 251.48 434.652 258.988 433.5 266.584C432.862 270.318 432.682 274.116 432.964 277.893C432.964 278.177 433.077 278.449 433.278 278.65C433.479 278.851 433.751 278.963 434.035 278.963C434.319 278.963 434.591 278.851 434.791 278.65C434.992 278.449 435.105 278.177 435.105 277.893C434.843 274.653 434.95 271.394 435.426 268.178C435.897 264.369 436.646 260.592 437.481 256.847C438.958 250.255 440.767 243.739 442.779 237.298C443.196 235.982 443.613 234.655 444.052 233.349C444.491 232.044 442.436 231.477 441.997 232.772V232.718Z" fill="#171B1B"/>
<path d="M465.714 225.025C464.837 225.648 464.011 226.338 463.241 227.09C461.107 229.148 459.146 231.377 457.376 233.756C454.541 237.574 452.035 241.626 449.885 245.868C446.771 251.973 444.169 258.326 442.104 264.861C439.341 273.545 437.244 282.426 435.832 291.429C435.632 292.727 435.44 294.022 435.254 295.313C435.178 295.585 435.213 295.877 435.352 296.123C435.49 296.37 435.72 296.552 435.993 296.629C436.265 296.705 436.556 296.67 436.803 296.531C437.05 296.393 437.232 296.163 437.309 295.891C438.584 286.613 440.548 277.442 443.185 268.456C445.141 261.762 447.647 255.242 450.676 248.96C452.839 244.472 455.381 240.176 458.275 236.12L459.142 234.933L459.87 233.991C460.395 233.338 460.94 232.696 461.465 232.065C462.321 231.059 463.22 230.096 464.162 229.165C464.772 228.566 465.403 227.978 466.067 227.432L466.656 226.951C466.27 227.272 466.656 226.951 466.752 226.886C467.886 226.116 466.816 224.254 465.682 225.046L465.714 225.025Z" fill="#171B1B"/>
<path d="M435.254 303.124C434.86 304.162 434.573 305.238 434.398 306.334C433.852 309.308 433.669 312.336 433.852 315.354C433.995 317.853 434.321 320.339 434.826 322.791C435.093 324.139 437.159 323.561 436.881 322.213C435.746 316.542 435.339 310.314 436.988 304.708C437.084 304.387 437.18 304.055 437.309 303.745C437.385 303.472 437.349 303.181 437.211 302.934C437.073 302.688 436.842 302.506 436.57 302.429C436.298 302.353 436.006 302.388 435.76 302.526C435.513 302.665 435.331 302.895 435.254 303.167V303.124Z" fill="#171B1B"/>
<path d="M460.362 265.15C457.871 266.493 455.523 268.085 453.352 269.9C448.224 273.98 443.83 278.905 440.359 284.463C437.845 288.513 435.887 292.882 434.537 297.453C434.46 297.727 434.495 298.02 434.635 298.268C434.774 298.515 435.007 298.698 435.281 298.774C435.554 298.851 435.848 298.816 436.096 298.676C436.343 298.537 436.526 298.305 436.602 298.031C438.807 290.643 442.627 283.837 447.787 278.107C451.09 274.369 454.889 271.101 459.078 268.392C459.849 267.9 460.619 267.407 461.432 266.99C462.663 266.369 461.582 264.518 460.362 265.15Z" fill="#171B1B"/>
<path d="M482.517 259.853C478.796 261.534 475.217 263.513 471.815 265.77C463.585 270.99 456.1 277.3 449.564 284.527C444.956 289.648 440.933 295.264 437.566 301.273C437.438 301.517 437.41 301.802 437.487 302.067C437.564 302.332 437.74 302.557 437.979 302.695C438.218 302.833 438.501 302.874 438.769 302.808C439.037 302.742 439.27 302.576 439.418 302.343C445.068 292.369 452.476 283.499 461.283 276.16C467.026 271.287 473.276 267.047 479.927 263.513C481.137 262.871 482.367 262.239 483.62 261.694C483.863 261.551 484.039 261.318 484.112 261.045C484.184 260.773 484.145 260.483 484.005 260.238C483.862 259.995 483.629 259.819 483.356 259.747C483.084 259.674 482.794 259.713 482.549 259.853H482.517Z" fill="#171B1B"/>
<path d="M475.603 276.77L475.496 276.909C475.463 276.963 475.423 277.014 475.379 277.059C475.314 277.155 475.582 276.824 475.443 276.995L475.314 277.144C474.865 277.701 474.362 278.215 473.859 278.76C471.764 280.867 469.498 282.796 467.084 284.527C464.858 286.154 462.557 287.673 460.213 289.118C459.046 289.835 460.117 291.686 461.283 290.958C465.121 288.654 468.774 286.057 472.211 283.19C473.848 281.854 475.36 280.371 476.727 278.76C476.983 278.47 477.219 278.162 477.433 277.84C478.204 276.695 476.363 275.625 475.593 276.77H475.603Z" fill="#171B1B"/>
<path d="M490.63 277.797L461.252 288.497C459.967 288.968 460.524 291.044 461.819 290.562L491.208 279.862C492.493 279.402 491.936 277.326 490.63 277.808V277.797Z" fill="#171B1B"/>
<path d="M455.226 306.666L439.815 318.329C439.572 318.472 439.395 318.705 439.323 318.977C439.251 319.25 439.289 319.54 439.429 319.784C439.572 320.027 439.805 320.204 440.078 320.276C440.35 320.348 440.64 320.31 440.885 320.169L456.297 308.549C456.54 308.406 456.716 308.173 456.789 307.901C456.861 307.628 456.822 307.338 456.682 307.094C456.539 306.851 456.306 306.674 456.033 306.602C455.761 306.53 455.471 306.568 455.226 306.709V306.666Z" fill="#171B1B"/>
<path d="M476.309 299.39C466.77 305.275 456.97 310.696 446.909 315.654C443.984 317.08 441.048 318.471 438.101 319.827C437.858 319.969 437.681 320.202 437.609 320.475C437.537 320.747 437.575 321.037 437.715 321.282C437.858 321.525 438.091 321.701 438.364 321.774C438.637 321.846 438.927 321.807 439.171 321.667C449.51 316.945 459.595 311.727 469.427 306.013C472.103 304.451 474.754 302.856 477.379 301.23C478.557 300.513 477.476 298.662 476.309 299.39Z" fill="#171B1B"/>
<path d="M441.676 407.952C437.066 415.085 432.193 422.015 427.056 428.742C421.662 435.875 415.979 442.748 410.006 449.361C406.51 453.256 402.921 457.069 399.24 460.799C398.276 461.784 399.785 463.303 400.759 462.319C407.245 455.735 413.453 448.894 419.382 441.796C425.012 435.034 430.381 428.057 435.489 420.867C438.251 416.986 440.926 413.038 443.516 409.022C444.276 407.866 442.446 406.796 441.676 407.952Z" fill="#171B1B"/>
<path d="M450.774 396.856C449.433 405.083 446.153 412.873 441.206 419.583C439.893 421.36 438.463 423.047 436.924 424.633C435.972 425.628 437.481 427.147 438.444 426.152C444.668 419.686 449.185 411.773 451.587 403.126C452.111 401.253 452.529 399.353 452.839 397.434C452.915 397.161 452.88 396.87 452.742 396.623C452.603 396.377 452.373 396.195 452.101 396.118C451.828 396.042 451.537 396.077 451.29 396.215C451.044 396.354 450.862 396.584 450.784 396.856H450.774Z" fill="#171B1B"/>
<path d="M438.839 447.959C430.083 459.278 420.197 469.675 409.332 478.989C406.478 481.45 403.545 483.833 400.534 486.137C400.291 486.28 400.115 486.513 400.042 486.785C399.97 487.058 400.009 487.348 400.149 487.592C400.292 487.835 400.525 488.012 400.798 488.084C401.07 488.156 401.36 488.118 401.605 487.977C413.153 479.149 423.765 469.16 433.274 458.167C435.714 455.314 438.076 452.428 440.359 449.511C440.459 449.411 440.539 449.293 440.593 449.162C440.647 449.032 440.675 448.892 440.675 448.751C440.675 448.61 440.647 448.47 440.593 448.34C440.539 448.209 440.459 448.091 440.359 447.991C440.259 447.891 440.141 447.811 440.011 447.757C439.88 447.703 439.74 447.675 439.599 447.675C439.458 447.675 439.318 447.703 439.187 447.757C439.057 447.811 438.939 447.891 438.839 447.991V447.959Z" fill="#171B1B"/>
<path d="M438.208 472.195C430.224 478.026 421.084 482.392 411.302 483.911C408.061 484.394 404.782 484.562 401.509 484.414C400.128 484.361 400.139 486.501 401.509 486.554C412.499 486.859 423.346 484.003 432.761 478.326C435.006 477.013 437.181 475.584 439.279 474.046C439.415 473.984 439.537 473.895 439.637 473.783C439.736 473.671 439.811 473.54 439.857 473.397C439.903 473.254 439.918 473.104 439.902 472.955C439.886 472.806 439.838 472.662 439.763 472.533C439.688 472.403 439.586 472.291 439.465 472.204C439.344 472.116 439.205 472.055 439.058 472.024C438.912 471.993 438.761 471.993 438.614 472.024C438.468 472.056 438.329 472.117 438.208 472.205V472.195Z" fill="#171B1B"/>
<path d="M409.129 503.118C396.65 506.998 383.541 508.451 370.514 507.398C367.304 507.141 364.093 506.713 360.882 506.146C360.61 506.07 360.318 506.105 360.071 506.243C359.825 506.382 359.643 506.612 359.566 506.884C359.49 507.156 359.525 507.448 359.663 507.694C359.802 507.941 360.032 508.123 360.304 508.2C373.593 510.589 387.221 510.375 400.428 507.569C403.553 506.916 406.646 506.103 409.707 505.151C411.013 504.744 410.457 502.679 409.129 503.096V503.118Z" fill="#171B1B"/>
<path d="M494.665 315.878H494.783H494.901C489.742 340.317 487.708 354.987 486.906 364.221C486.277 369.931 485.204 375.584 483.695 381.127C480.58 392.897 478.889 398.878 473.848 401.671C471.087 403.201 469.45 402.591 453.942 401.339C443.849 400.526 448.836 401.136 439.193 400.269C421.117 398.696 412.084 397.915 405.78 396.503C397.023 394.513 388.554 391.421 380.575 387.301C348.467 395.133 324.461 401.5 304.586 407.203C294.425 409.779 284.023 411.296 273.549 411.729C265.824 412.127 258.08 411.974 250.378 411.269C247.167 410.969 241.056 410.445 235.79 406.112C231.905 402.902 227.87 398.001 225.387 387.729C220.592 367.913 222.647 334.871 224.06 318.757C224.456 314.327 224.798 311.17 224.937 309.929C226.061 310.111 227.634 310.389 229.507 310.85C232.67 311.639 235.766 312.677 238.765 313.952C243.506 315.911 246.963 317.751 247.327 317.965C251.673 320.276 259.721 324.096 275.796 330.805C277.016 331.292 278.037 332.174 278.697 333.309C279.071 333.968 279.307 334.696 279.392 335.449C279.546 335.755 279.661 336.078 279.735 336.412C279.88 337.007 279.91 337.625 279.82 338.231C283.168 334.763 287.099 331.909 291.433 329.799C293.573 328.836 294.772 328.729 298.497 327.156C299.827 326.588 301.216 326.168 302.639 325.904C303.398 325.776 304.094 325.701 304.49 325.658C304.49 325.658 306.299 325.476 308.075 325.487C328.154 325.669 346.23 333.501 346.23 333.501C356.762 338.06 379.248 342.532 431.53 342.297L435.811 341.762L437.235 341.58C437.315 341.352 437.383 341.12 437.438 340.884C437.54 340.428 437.58 339.96 437.556 339.493C437.716 337.867 437.823 336.091 437.823 334.143C437.823 332.549 437.748 331.04 437.631 329.649C437.956 329.389 438.316 329.177 438.701 329.018C440.285 328.43 441.537 329.146 443.271 329.275C444.527 329.284 445.774 329.066 446.953 328.633C456.018 326.108 471.076 316.082 471.076 316.082C477.659 311.695 485.386 309.319 492.385 305.628C492.589 305.501 492.817 305.417 493.054 305.38C493.291 305.344 493.533 305.355 493.766 305.414C494.047 305.563 494.29 305.774 494.475 306.032C494.661 306.29 494.784 306.588 494.836 306.901C495.8 310.197 494.494 315.836 494.665 315.878Z" fill="#F5F4F3"/>
<path d="M318.905 187.928L313.415 191.427C313.278 191.488 313.156 191.578 313.057 191.69C312.957 191.801 312.882 191.933 312.836 192.075C312.79 192.218 312.775 192.369 312.791 192.517C312.808 192.666 312.855 192.81 312.93 192.94C313.005 193.069 313.107 193.181 313.228 193.269C313.35 193.357 313.488 193.418 313.635 193.449C313.781 193.48 313.933 193.479 314.079 193.448C314.226 193.417 314.364 193.355 314.485 193.267L319.986 189.779C320.114 189.712 320.227 189.62 320.318 189.508C320.41 189.396 320.478 189.267 320.518 189.129C320.558 188.99 320.57 188.845 320.552 188.702C320.535 188.558 320.489 188.42 320.417 188.295C320.344 188.17 320.248 188.061 320.132 187.975C320.017 187.888 319.885 187.826 319.745 187.791C319.604 187.757 319.459 187.752 319.316 187.775C319.174 187.798 319.038 187.85 318.916 187.928H318.905Z" fill="#171B1B"/>
<path d="M257.763 216.315C264.823 213.099 272.212 210.66 279.799 209.039C282.041 208.591 284.256 208.019 286.435 207.327C289.48 206.306 292.446 205.062 295.308 203.603C299.639 201.406 303.797 198.88 307.744 196.049C307.987 195.906 308.164 195.673 308.236 195.401C308.308 195.128 308.27 194.838 308.129 194.594C308.058 194.472 307.964 194.366 307.852 194.28C307.74 194.195 307.612 194.133 307.476 194.097C307.34 194.061 307.198 194.053 307.058 194.072C306.919 194.091 306.785 194.138 306.663 194.209C300.522 198.76 293.765 202.417 286.596 205.069C284.398 205.809 282.157 206.413 279.885 206.878C276.137 207.654 272.433 208.625 268.786 209.788C264.679 211.113 260.652 212.674 256.725 214.464C256.603 214.535 256.496 214.629 256.411 214.741C256.326 214.853 256.263 214.981 256.228 215.117C256.192 215.253 256.183 215.395 256.202 215.534C256.222 215.674 256.268 215.808 256.339 215.93C256.482 216.173 256.715 216.349 256.988 216.422C257.26 216.494 257.55 216.455 257.795 216.315H257.763Z" fill="#171B1B"/>
<path d="M245.069 227.154C243.863 230.721 242.55 234.266 241.13 237.79C239.792 241.085 238.347 244.327 237.127 247.677C236.742 248.747 236.369 249.064 236.037 250.134L235.659 250.513C235.777 250.288 235.595 250.695 235.659 250.513L235.281 251.27C235.141 251.537 234.684 252.159 234.524 252.405C233.53 253.763 233.049 254.297 231.797 255.787C230.691 256.485 229.883 257.567 229.528 258.826C229.239 260.399 230.031 261.49 230.599 262.871C231.406 264.873 231.771 267.027 231.669 269.184C231.669 270.564 233.809 270.564 233.809 269.184C233.878 267.233 233.625 265.285 233.06 263.416C232.798 262.59 232.465 261.788 232.065 261.019C231.808 260.635 231.633 260.201 231.551 259.746C231.551 259.896 231.551 259.564 231.551 259.511C231.533 259.408 231.533 259.303 231.551 259.2C231.597 258.971 231.696 258.755 231.84 258.569C232.2 258.166 232.606 257.807 233.049 257.499C234.466 256.448 235.733 255.21 236.817 253.818C237.688 252.432 238.352 250.925 238.786 249.346C239.921 246.136 241.28 242.926 242.596 239.801C244.244 235.853 245.732 231.841 247.091 227.796C247.541 226.48 245.475 225.923 245.036 227.218L245.069 227.154Z" fill="#171B1B"/>
<path d="M230.405 272.169C227.259 280.643 224.119 289.114 220.987 297.581L218.312 304.804C217.83 306.099 219.896 306.655 220.366 305.382C223.513 296.907 226.652 288.436 229.785 279.969L232.46 272.747C232.942 271.452 230.876 270.896 230.405 272.169Z" fill="#171B1B"/>
<path d="M224.916 318.382C223.786 317.283 222.714 316.126 221.705 314.916C220.831 313.989 220.15 312.898 219.703 311.706C219.635 311.54 219.609 311.36 219.628 311.181C219.628 311.053 219.628 311.117 219.628 311.042C219.976 310.754 220.419 310.605 220.87 310.625C221.468 310.577 222.07 310.577 222.668 310.625L223.257 310.689H223.396C223.075 310.689 223.396 310.689 223.503 310.689C227.191 311.42 230.803 312.495 234.291 313.899C244.255 317.526 253.973 321.86 263.627 326.247C267.715 328.123 271.797 330.017 275.871 331.929C277.102 332.517 278.193 330.677 276.941 330.088C273.231 328.319 269.499 326.582 265.746 324.877C260.673 322.566 255.589 320.287 250.463 318.104C245.336 315.921 240.22 313.824 234.997 311.887C231.398 310.432 227.657 309.356 223.835 308.677C221.769 308.378 217.927 308.003 217.499 310.817C217.452 312.124 217.869 313.405 218.676 314.434C219.601 315.802 220.647 317.084 221.801 318.265C222.326 318.832 222.871 319.335 223.417 319.912C224.402 320.875 225.922 319.367 224.937 318.393L224.916 318.382Z" fill="#171B1B"/>
<path d="M272.532 415.442C272.96 422.247 273.388 429.074 274.116 435.858C274.298 437.484 274.48 439.068 274.769 440.715C274.84 441.134 274.933 441.548 275.047 441.957C275.111 442.203 275.218 442.438 275.272 442.684C275.342 443.033 275.323 443.394 275.219 443.734C275.114 444.074 274.926 444.382 274.672 444.632C273.688 445.702 272.403 446.558 271.344 447.585C270.1 448.725 269.058 450.067 268.261 451.555C267.595 452.827 267.409 454.297 267.737 455.695C268.162 457.043 268.721 458.344 269.407 459.58C270.871 462.552 271.657 465.811 271.708 469.124C271.708 470.996 271.579 472.869 271.451 474.741C271.333 476.314 271.215 477.898 270.98 479.449C270.488 482.745 269.717 486.008 269.118 489.283C268.443 492.931 267.855 496.591 267.33 500.272C267.17 501.416 267.009 502.572 266.859 503.717C266.859 504.001 266.972 504.273 267.173 504.474C267.374 504.674 267.646 504.787 267.93 504.787C268.213 504.787 268.486 504.674 268.686 504.474C268.887 504.273 269 504.001 269 503.717C269.528 499.715 270.142 495.731 270.841 491.765C271.429 488.416 272.146 485.088 272.757 481.739C273.333 478.403 273.69 475.032 273.827 471.649C274.069 468.335 273.681 465.006 272.682 461.837C272.064 460.184 271.349 458.569 270.541 457.001C269.961 456.034 269.679 454.917 269.728 453.791C270.115 452.301 270.917 450.95 272.039 449.896C273 448.905 274.023 447.976 275.1 447.114C276.556 445.894 277.723 444.396 277.412 442.395C277.327 441.882 277.123 441.4 277.005 440.887C276.888 440.373 276.791 439.817 276.717 439.324C276.663 438.982 276.609 438.64 276.567 438.254C276.567 438.137 276.567 438.319 276.567 438.329V438.158V437.88C276.567 437.666 276.513 437.441 276.481 437.216C275.753 431.107 275.357 424.944 274.961 418.802L274.737 415.356C274.651 413.987 272.51 413.976 272.596 415.356L272.532 415.442Z" fill="#171B1B"/>
<path d="M454.626 406.486C452.795 413.58 451.04 420.706 449.628 427.886C448.789 431.863 448.185 435.886 447.819 439.934C447.637 442.32 447.819 444.738 447.359 447.114C447.039 449.11 446.342 451.028 445.304 452.763C444.405 454.218 443.067 455.427 442.467 457.043C441.622 459.322 442.467 461.323 443.538 463.463C444.319 465.079 445.09 466.673 445.775 468.332C446.487 469.88 447.084 471.479 447.562 473.115C447.752 473.833 447.813 474.579 447.744 475.319C447.744 475.554 447.744 475.126 447.744 475.319C447.749 475.383 447.749 475.447 447.744 475.511C447.744 475.693 447.669 475.864 447.626 476.046C447.508 476.474 447.369 476.902 447.219 477.32C445.972 480.473 444.517 483.54 442.863 486.5C442.36 487.442 441.847 488.373 441.333 489.314C440.659 490.513 442.51 491.593 443.174 490.384C445.047 487.035 446.834 483.622 448.375 480.102C449.239 478.454 449.777 476.656 449.959 474.805C449.947 473.631 449.726 472.468 449.306 471.37C448.664 469.509 447.872 467.69 447.08 465.881C446.438 464.448 445.732 463.057 445.068 461.601C444.87 461.212 444.701 460.808 444.565 460.392C444.501 460.189 444.437 459.986 444.394 459.782C444.351 459.579 444.394 459.6 444.34 459.504C444.34 459.75 444.34 459.397 444.34 459.333C444.292 458.844 444.354 458.35 444.522 457.888C444.769 457.23 445.132 456.622 445.593 456.091C446.929 454.475 447.982 452.644 448.707 450.677C449.777 447.574 449.777 444.353 449.938 441.122C450.013 439.624 450.173 438.147 450.355 436.67C450.355 436.339 450.452 435.975 450.526 435.472C450.601 434.969 450.687 434.402 450.762 433.92C450.955 432.765 451.158 431.609 451.372 430.454C452.624 423.691 454.219 416.993 455.91 410.327C456.178 409.257 456.456 408.187 456.734 407.117C456.788 406.852 456.739 406.577 456.598 406.347C456.458 406.116 456.235 405.948 455.975 405.874C455.715 405.801 455.437 405.829 455.196 405.952C454.956 406.076 454.771 406.285 454.679 406.539L454.626 406.486Z" fill="#171B1B"/>
<path d="M445.807 482.691L446.77 504.894C446.835 506.263 448.975 506.274 448.911 504.894L447.948 482.691C447.883 481.322 445.743 481.311 445.807 482.691Z" fill="#171B1B"/>
<path d="M438.529 341.077C438.789 339.03 438.879 336.965 438.797 334.903C438.797 333.833 438.647 332.763 438.55 331.768C438.55 331.436 438.486 331.094 438.486 330.698C438.486 330.559 438.486 330.419 438.486 330.28C438.486 330.216 438.486 330.141 438.486 330.28C438.496 330.203 438.518 330.127 438.55 330.056C438.571 330.001 438.6 329.951 438.636 329.906C438.871 329.831 438.636 329.906 438.786 329.842C438.593 329.842 438.946 329.842 439.021 329.842C439.652 329.915 440.276 330.043 440.884 330.227C442.65 330.664 444.504 330.598 446.235 330.034C447.785 329.322 449.29 328.514 450.741 327.616C452.442 326.717 454.198 325.947 455.974 325.198C459.876 323.483 463.669 321.528 467.33 319.345C471.482 316.959 475.592 314.487 479.83 312.262C483.248 310.478 486.741 308.848 490.308 307.372C493.539 305.981 496.87 304.836 500.273 303.948C501.316 303.647 502.397 303.495 503.483 303.498H503.783C504.061 303.498 503.676 303.498 503.847 303.498L504.093 303.563H504.211C504.211 303.563 504.147 303.466 504.158 303.563C504.168 303.659 504.436 303.563 504.243 303.563C504.147 303.488 504.05 303.563 504.243 303.563C504.339 303.637 504.168 303.466 504.179 303.466C504.339 303.851 504.19 303.466 504.179 303.466C504.254 303.669 504.179 303.68 504.179 303.466C504.179 303.552 504.179 303.648 504.179 303.723C504.179 303.798 504.254 303.466 504.179 303.616C504.173 303.666 504.173 303.716 504.179 303.766C504.179 303.873 504.104 303.99 504.072 304.108C503.976 304.408 504.168 303.958 503.986 304.301C503.911 304.451 503.836 304.6 503.751 304.75C503.537 305.114 503.301 305.467 503.055 305.82C502.344 306.766 501.58 307.67 500.765 308.527C499.502 309.897 498.164 311.202 496.805 312.486C495.906 313.332 495.007 314.166 494.086 314.99C493.166 315.814 494.579 317.43 495.606 316.509C498.574 313.941 501.35 311.159 503.911 308.185C504.907 306.965 506.255 305.403 506.33 303.734C506.426 301.85 504.5 301.305 502.937 301.38C499.811 301.714 496.75 302.504 493.851 303.723C485.648 306.845 477.74 310.69 470.22 315.215C466.067 317.622 461.936 320.094 457.601 322.159C455.91 322.962 454.155 323.646 452.442 324.417C450.462 325.316 448.568 326.375 446.674 327.456C446.204 327.752 445.697 327.982 445.165 328.14C444.266 328.386 443.328 328.451 442.403 328.333C440.969 328.183 439.342 327.338 437.919 327.916C436.496 328.493 436.292 330.056 436.399 331.383C436.644 333.649 436.733 335.93 436.667 338.209C436.61 339.144 436.524 340.074 436.41 341.002C436.41 341.286 436.523 341.558 436.723 341.758C436.924 341.959 437.196 342.072 437.48 342.072C437.764 342.072 438.036 341.959 438.237 341.758C438.438 341.558 438.55 341.286 438.55 341.002L438.529 341.077Z" fill="#171B1B"/>
<path d="M476.064 225.774C479.762 230.655 482.703 236.066 484.786 241.824C485.675 244.456 486.317 247.174 487.034 249.849C487.623 252.096 488.243 254.343 488.661 256.622C488.661 256.782 488.714 256.943 488.746 257.103C488.741 257.193 488.741 257.282 488.746 257.371C488.746 257.136 488.746 257.66 488.746 257.371C488.746 257.606 488.8 257.97 488.821 258.28C488.847 259.754 489.164 261.209 489.753 262.56C490.423 263.881 491.413 265.014 492.632 265.856C493.086 266.189 493.456 266.624 493.712 267.126C493.969 267.627 494.104 268.182 494.109 268.745C494.109 269.911 493.691 271.046 493.627 272.212C493.547 273.696 493.869 275.175 494.558 276.492C495.125 277.562 495.949 278.482 496.57 279.499C497.024 280.251 497.438 281.026 497.812 281.82C499.294 285.264 500.556 288.799 501.59 292.403C502.667 295.834 503.67 299.297 504.597 302.792C504.674 303.066 504.856 303.298 505.104 303.438C505.352 303.577 505.645 303.613 505.919 303.536C506.193 303.459 506.425 303.277 506.564 303.029C506.704 302.782 506.739 302.488 506.663 302.215C504.99 295.575 502.924 289.04 500.477 282.644C499.658 280.519 498.58 278.502 497.266 276.642C496.606 275.815 496.145 274.849 495.917 273.817C495.76 272.561 495.84 271.287 496.153 270.061C496.416 268.768 496.255 267.424 495.692 266.231C495.045 265.154 494.168 264.234 493.124 263.534C491.946 262.454 491.213 260.974 491.069 259.383C490.973 258.548 490.983 257.724 490.876 256.9C490.555 254.922 490.119 252.964 489.571 251.037C488.821 248.105 488.094 245.152 487.195 242.263C485.083 235.938 481.948 230.003 477.915 224.693C477.845 224.571 477.75 224.465 477.638 224.38C477.526 224.294 477.398 224.232 477.262 224.196C477.126 224.16 476.984 224.152 476.845 224.171C476.705 224.19 476.571 224.237 476.449 224.308C476.327 224.379 476.221 224.473 476.136 224.585C476.05 224.697 475.988 224.825 475.952 224.961C475.916 225.097 475.908 225.239 475.927 225.379C475.946 225.518 475.993 225.652 476.064 225.774Z" fill="#171B1B"/>
<path d="M402.74 185.328L409.022 192.465C409.223 192.664 409.494 192.776 409.777 192.776C410.06 192.776 410.331 192.664 410.531 192.465C410.632 192.365 410.711 192.247 410.766 192.116C410.82 191.986 410.848 191.846 410.848 191.705C410.848 191.564 410.82 191.424 410.766 191.293C410.711 191.163 410.632 191.045 410.531 190.945L404.249 183.819C404.048 183.62 403.777 183.508 403.495 183.508C403.212 183.508 402.941 183.62 402.74 183.819C402.541 184.019 402.429 184.291 402.429 184.573C402.429 184.856 402.541 185.127 402.74 185.328Z" fill="#171B1B"/>
<path d="M416.621 195.482C420.613 195.589 424.691 196.552 427.634 199.249C429.152 200.815 430.802 202.247 432.568 203.529C434.558 204.78 436.771 205.634 439.086 206.043C443.702 207.041 448.177 208.604 452.411 210.698C457.462 212.966 462.407 215.448 467.319 218.006C468.539 218.637 469.62 216.786 468.39 216.155C461.06 212.144 453.469 208.63 445.668 205.637C443.931 204.973 442.141 204.458 440.317 204.096C438.382 203.802 436.505 203.21 434.751 202.341C432.84 201.192 431.099 199.78 429.582 198.147C426.039 194.765 421.437 193.449 416.6 193.321C416.316 193.321 416.043 193.434 415.843 193.634C415.642 193.835 415.529 194.107 415.529 194.391C415.529 194.675 415.642 194.947 415.843 195.147C416.043 195.348 416.316 195.461 416.6 195.461L416.621 195.482Z" fill="#171B1B"/>
<path d="M400.578 188.709C393.409 199.807 383.64 208.989 372.119 215.459C369.036 217.102 365.701 218.223 362.251 218.776C359.501 219.152 356.707 219.084 353.978 218.573C347.975 217.339 342.345 214.715 337.539 210.911C331.238 206.01 325.878 200.006 321.721 193.192C320.993 192.026 319.141 193.096 319.88 194.262C323.771 200.608 328.652 206.29 334.339 211.093C339.298 215.37 345.147 218.488 351.463 220.22C354.329 220.948 357.286 221.247 360.239 221.108C363.739 220.878 367.172 220.042 370.386 218.637C376.497 216.047 381.795 211.96 386.835 207.701C392.398 203.024 397.276 197.589 401.327 191.555C401.701 190.988 402.065 190.421 402.397 189.843C403.136 188.677 401.327 187.607 400.556 188.773L400.578 188.709Z" fill="#171B1B"/>
<path d="M223.621 312.24C222.486 322.177 221.823 332.164 221.63 342.2C221.459 351.83 221.727 361.46 222.433 371.026C222.797 375.962 223.275 380.881 223.867 385.781C223.867 386.065 223.98 386.337 224.18 386.538C224.381 386.739 224.653 386.851 224.937 386.851C225.221 386.851 225.493 386.739 225.694 386.538C225.895 386.337 226.008 386.065 226.008 385.781C224.93 376.829 224.217 367.837 223.867 358.807C223.525 348.777 223.657 338.751 224.263 328.729C224.606 323.236 225.091 317.751 225.719 312.272C225.719 311.989 225.606 311.716 225.405 311.516C225.204 311.315 224.932 311.202 224.648 311.202C224.364 311.202 224.092 311.315 223.892 311.516C223.691 311.716 223.578 311.989 223.578 312.272L223.621 312.24Z" fill="#171B1B"/>
<path d="M230.085 314.038C227.983 323.178 227.318 332.589 228.116 341.933C228.233 343.292 230.374 343.303 230.256 341.933C229.468 332.785 230.103 323.569 232.14 314.616C232.45 313.268 230.385 312.701 230.085 314.038Z" fill="#171B1B"/>
<path d="M232.397 316.253L231.755 324.385C231.755 324.669 231.868 324.941 232.068 325.141C232.269 325.342 232.541 325.455 232.825 325.455C233.109 325.455 233.381 325.342 233.582 325.141C233.783 324.941 233.895 324.669 233.895 324.385L234.538 316.253C234.538 315.969 234.425 315.697 234.224 315.496C234.023 315.296 233.751 315.183 233.467 315.183C233.183 315.183 232.911 315.296 232.711 315.496C232.51 315.697 232.397 315.969 232.397 316.253Z" fill="#171B1B"/>
<path d="M285.054 399.071C299.033 397.821 312.93 395.774 326.676 392.94C330.394 392.176 334.097 391.353 337.786 390.468C339.123 390.158 338.556 388.093 337.208 388.414C323.719 391.634 310.058 394.085 296.291 395.754C292.553 396.203 288.807 396.596 285.054 396.931C284.77 396.931 284.498 397.044 284.297 397.244C284.096 397.445 283.983 397.717 283.983 398.001C283.983 398.285 284.096 398.557 284.297 398.757C284.498 398.958 284.77 399.071 285.054 399.071Z" fill="#171B1B"/>
<path d="M225.932 393.325C227.832 399.628 232.112 404.944 237.866 408.145C242.294 410.503 247.113 412.041 252.09 412.681C258.843 413.751 265.661 412.874 272.425 412.392C278.097 411.996 283.78 411.59 289.442 410.98C300.294 409.792 310.986 407.278 321.55 404.678C333.408 401.778 345.171 398.525 356.869 395.048C363.568 393.079 370.247 391.042 376.904 388.938L377.567 388.724C378.873 388.307 378.306 386.242 376.989 386.67C371.445 388.446 365.859 390.147 360.272 391.816C349.12 395.133 337.914 398.236 326.644 401.168C320.48 402.741 314.293 404.228 308.086 405.566C303.152 406.636 298.207 407.706 293.209 408.348C288.382 409.001 283.523 409.418 278.664 409.76C275.272 410.028 271.868 410.263 268.475 410.499C265.265 410.723 262.107 411.023 258.929 411.034C253.573 411.028 248.259 410.086 243.228 408.251C237.408 406.259 232.55 402.153 229.614 396.749C228.959 395.471 228.425 394.135 228.02 392.758C227.624 391.442 225.547 391.998 225.954 393.325H225.932Z" fill="#171B1B"/>
<path d="M312.741 362.712C319.238 363.675 325.691 364.991 332.092 366.447C336.116 367.27 340.072 368.393 343.929 369.807C348.403 371.617 352.76 373.704 356.975 376.055C363.161 379.394 369.187 382.989 375.17 386.627C380.808 390.213 386.837 393.146 393.139 395.369C399.028 397.181 405.078 398.417 411.205 399.06C416.609 399.729 422.051 400.04 427.495 399.991C429.933 399.863 432.377 399.863 434.815 399.991C437.62 400.259 440.317 401.061 443.099 401.521C445.278 401.831 447.472 402.024 449.671 402.099C452.989 402.256 456.296 402.477 459.592 402.762C462.289 402.987 464.858 403.618 467.587 403.725C471.194 403.865 474.758 403.019 477.273 400.291C478.235 399.25 479.03 398.066 479.627 396.781C480.205 395.54 478.365 394.449 477.776 395.711C477.201 397.139 476.283 398.403 475.103 399.392C473.924 400.381 472.518 401.065 471.012 401.382C467.801 401.96 464.719 401.19 461.551 400.826C458.682 400.494 455.793 400.344 452.914 400.152C450.634 400.002 448.333 399.98 446.053 399.766C443.281 399.499 440.616 398.814 437.887 398.311C435.417 397.861 432.904 397.685 430.395 397.787C424.504 397.955 418.608 397.726 412.747 397.102C407.66 396.583 402.618 395.703 397.656 394.47C390.991 392.65 384.618 389.898 378.723 386.295C368.299 380.164 358.067 373.53 346.915 368.769C343.449 367.303 339.87 366.122 336.212 365.238C329.973 363.729 323.669 362.391 317.333 361.311C315.963 361.075 314.582 360.861 313.202 360.647C313.066 360.61 312.924 360.6 312.785 360.617C312.645 360.635 312.51 360.679 312.388 360.749C312.266 360.818 312.158 360.911 312.072 361.023C311.986 361.134 311.922 361.261 311.885 361.396C311.848 361.532 311.837 361.674 311.855 361.813C311.872 361.953 311.917 362.087 311.987 362.21C312.056 362.332 312.149 362.439 312.26 362.525C312.372 362.612 312.499 362.675 312.634 362.712H312.741Z" fill="#171B1B"/>
<path d="M261.937 357.555C270.349 358.154 278.747 358.892 287.131 359.77C290.149 360.076 293.167 360.408 296.185 360.765C296.469 360.765 296.741 360.652 296.942 360.451C297.143 360.251 297.255 359.979 297.255 359.695C297.255 359.411 297.143 359.139 296.942 358.938C296.741 358.738 296.469 358.625 296.185 358.625C286.767 357.533 277.331 356.613 267.877 355.864L261.937 355.415C260.567 355.318 260.567 357.458 261.937 357.555Z" fill="#171B1B"/>
<path d="M277.391 333.02C278.064 334.658 278.388 336.418 278.343 338.188C278.162 340.063 277.663 341.894 276.866 343.602C275.534 346.901 274.561 350.334 273.966 353.842C273.89 354.114 273.925 354.406 274.064 354.652C274.202 354.899 274.432 355.081 274.704 355.158C274.977 355.234 275.268 355.199 275.515 355.06C275.762 354.922 275.944 354.692 276.021 354.42C276.658 350.753 277.688 347.166 279.093 343.72C279.915 341.883 280.386 339.909 280.484 337.899C280.5 336.012 280.136 334.142 279.414 332.399C279.336 332.127 279.154 331.897 278.908 331.758C278.661 331.62 278.37 331.585 278.097 331.661C277.825 331.738 277.595 331.92 277.456 332.166C277.318 332.413 277.283 332.704 277.359 332.977L277.391 333.02Z" fill="#171B1B"/>
<path d="M282.228 337.439C286.21 333.234 291.861 330.495 297.298 328.676C303.634 326.536 310.28 326.397 316.884 327.06C322.875 327.769 328.794 328.993 334.575 330.719C341.682 332.677 348.745 334.775 355.841 336.743C360.754 338.113 365.677 339.472 370.664 340.478C375.777 341.497 380.956 342.154 386.162 342.447C393.065 342.864 399.99 342.939 406.893 343.121C412.619 343.27 418.355 343.442 424.092 343.431C427.266 343.481 430.439 343.295 433.585 342.875C439.645 341.877 445.848 342.183 451.78 343.773C453.128 344.148 454.444 344.587 455.75 345.089C457.056 345.592 457.602 343.527 456.328 343.035C450.065 340.623 443.327 339.7 436.646 340.339C435.576 340.435 434.42 340.585 433.307 340.756C432.504 340.874 432.237 340.927 431.541 341.002C430.042 341.163 428.533 341.216 427.024 341.259C421.983 341.377 416.932 341.259 411.891 341.109C404.613 340.938 397.325 340.799 390.047 340.499C384.479 340.321 378.929 339.767 373.436 338.841C368.738 338.017 364.114 336.808 359.523 335.556C352.481 333.63 345.47 331.586 338.449 329.596C332.424 327.755 326.281 326.325 320.062 325.316C313.839 324.274 307.485 324.292 301.268 325.369C294.692 326.718 288.512 329.555 283.202 333.662C282.307 334.356 281.466 335.118 280.687 335.941C279.735 336.947 281.244 338.455 282.196 337.45L282.228 337.439Z" fill="#171B1B"/>
<path d="M384.727 346.384C396.691 350.751 408.938 354.297 421.384 356.999C424.777 357.737 428.191 358.4 431.605 359.01C431.877 359.086 432.169 359.051 432.416 358.912C432.662 358.774 432.844 358.544 432.921 358.272C432.997 357.999 432.962 357.708 432.824 357.461C432.685 357.215 432.455 357.033 432.183 356.956C419.56 354.697 407.106 351.584 394.906 347.636C391.681 346.587 388.47 345.485 385.273 344.33C383.968 343.848 383.411 345.924 384.695 346.384H384.727Z" fill="#171B1B"/>
<path d="M493.969 307.479C494.643 311.17 493.734 314.68 493.134 318.35C492.599 321.624 492.064 324.909 491.411 328.173C490.844 331.169 490.17 334.133 489.645 337.139C488.457 343.934 487.505 350.803 486.638 357.651C486.317 360.112 486.028 362.584 485.739 365.056C485.514 366.992 485.332 368.437 485 370.406C483.853 377.115 482.2 383.729 480.056 390.19C479.692 391.26 479.328 392.33 478.985 393.4C478.525 394.705 480.591 395.262 481.051 393.967C483.545 387.023 485.471 379.887 486.809 372.631C487.569 368.447 487.997 364.232 488.521 360.016C489.388 353.072 490.362 346.106 491.497 339.194C492 336.166 492.663 333.18 493.241 330.163C493.819 327.145 494.312 324.117 494.879 321.079C495.232 319.013 495.564 316.927 495.885 314.851C496.219 313.088 496.38 311.296 496.366 309.501C496.322 308.636 496.218 307.774 496.056 306.922C495.81 305.574 493.755 306.141 494.001 307.49L493.969 307.479Z" fill="#171B1B"/>
<path d="M323.551 189.629C327.645 186.829 330.682 182.738 332.177 178.009C332.595 176.693 330.529 176.126 330.112 177.442C328.787 181.645 326.098 185.286 322.47 187.789C322.227 187.932 322.05 188.165 321.978 188.437C321.906 188.71 321.944 189 322.085 189.244C322.155 189.366 322.25 189.472 322.362 189.557C322.474 189.643 322.602 189.705 322.738 189.741C322.874 189.777 323.016 189.785 323.155 189.766C323.295 189.747 323.429 189.7 323.551 189.629Z" fill="#171B1B"/>
<path d="M353.903 212.998C349.773 206.439 347.304 198.972 346.711 191.245C346.57 189.308 346.542 187.364 346.626 185.424C346.69 184.054 344.549 184.054 344.485 185.424C344.029 195.52 346.669 205.514 352.052 214.068C352.79 215.234 354.642 214.164 353.903 212.998Z" fill="#171B1B"/>
<path d="M370.139 210.965C372.071 202.939 372.66 194.648 371.884 186.43C371.884 186.146 371.771 185.874 371.57 185.673C371.37 185.472 371.098 185.36 370.814 185.36C370.53 185.36 370.258 185.472 370.057 185.673C369.856 185.874 369.743 186.146 369.743 186.43C370.518 194.456 369.953 202.556 368.074 210.398C367.753 211.735 369.818 212.302 370.139 210.965Z" fill="#171B1B"/>
<path d="M393.15 168.593C393.413 175.225 395.325 181.686 398.715 187.393C398.863 187.626 399.096 187.792 399.364 187.858C399.632 187.924 399.915 187.883 400.154 187.745C400.393 187.607 400.569 187.382 400.646 187.117C400.723 186.852 400.695 186.567 400.567 186.323C397.362 180.947 395.548 174.857 395.29 168.603C395.226 167.234 393.086 167.223 393.15 168.603V168.593Z" fill="#171B1B"/>
<path d="M335.173 72.6782C333.75 73.8338 321.806 83.849 320.372 99.0002C319.355 109.764 323.722 122.262 321.346 123.225C320.649 123.302 319.944 123.23 319.277 123.012C318.611 122.794 317.999 122.436 317.482 121.962C316.711 121.288 316.412 120.571 315.63 120.518C314.849 120.464 314.432 120.967 313.683 121.673C312.898 122.374 312.259 123.221 311.799 124.167C310.729 126.531 311.424 129.11 312.184 131.753C312.712 133.366 313.33 134.949 314.036 136.493C316.412 142.303 316.551 143.469 318.135 145.973C319.944 148.851 321.185 149.579 321.731 149.868C323.098 150.51 324.626 150.73 326.119 150.499C331.727 150.125 336.319 164.987 343.425 172.081C352.33 180.984 369.957 182.471 377.973 175.173C381.933 171.568 387.295 162.43 392.004 154.394C392.657 153.324 394.894 149.408 397.463 149.622C398.533 149.707 399.411 150.489 400.385 149.975C400.93 149.675 401.187 149.13 401.872 147.3C402.557 145.47 402.943 144.582 403.178 143.651C403.991 140.912 404.419 140.666 405.383 137.97C406.758 134.654 407.443 131.094 407.395 127.505C407.32 125.879 406.838 125.365 406.678 123.011C406.603 121.877 406.678 121.278 406.228 120.871C405.393 120.122 404.088 121.417 402.782 120.871C401.476 120.325 401.23 118.656 401.027 117.361C399.956 110.513 402.236 97.0314 400.449 89.4879C399.025 83.5173 394.766 80.1468 389.532 76.0166C376.614 65.8195 352.308 58.7254 335.173 72.6782Z" fill="#F5F4F3"/>
<path fill-rule="evenodd" clip-rule="evenodd" d="M325.83 134.77C325.348 126.874 325.701 123.364 325.316 123.321C325.134 123.321 324.813 124.027 324.46 125.311H325.049L325.755 136.011L325.948 136.397C325.937 135.904 325.873 135.359 325.83 134.77Z" fill="#171B1B"/>
<path d="M361.823 50.7646C370.054 48.2715 386.835 58.8431 394.188 64.4392C394.723 65.5092 395.408 67.6492 393.888 67.9916C396.789 70.2493 408.177 88.4393 407.973 89.948C407.844 90.4553 407.597 90.9247 407.251 91.3173C406.904 91.7099 406.47 92.0144 405.982 92.2057C407.053 94.0675 408.861 98.2084 407.973 99.8455C407.085 101.483 406.475 107.335 406.282 110.064C404.484 118.035 402.879 122.765 402.183 125.782C400.342 133.722 399.818 133.101 399.711 136.011C399.604 138.922 399.486 137.295 399.186 136.011C398.761 134.099 398.528 132.149 398.491 130.191C398.287 126.745 398.79 125.996 397.42 121.149C398.491 108.234 395.558 96.689 393.921 92.5267C392.026 92.7407 389.126 92.3127 387.734 90.59C385.594 93.3827 383.539 92.6337 382.383 92.9547C380.714 93.4469 374.688 90.911 372.194 89.2953C369.989 91.66 368.298 91.4353 365.002 90.055C363.14 89.2632 356.9 84.2342 355.701 82.6292C355.701 85.4219 354.845 87.5726 353.903 87.9792C353.304 88.129 351.763 87.8936 350.211 85.8392C348.317 83.2605 341.82 81.6448 341.018 80.8958C340.132 82.515 338.909 83.9258 337.432 85.0331C335.955 86.1405 334.258 86.9188 332.455 87.3158C332.252 94.8058 331.171 100.637 329.459 104.436L326.462 108.095L324.664 133.176C322.748 134.385 321.335 129.014 320.875 126.178C319.662 124.989 318.558 123.693 317.579 122.305C316.177 120.261 313.779 86.1388 313.779 85.2828C313.779 84.4268 316.68 80.0077 319.976 78.606C320.276 74.6256 322.117 66.5578 332.455 59.667C342.794 52.7762 365.933 44.2804 361.834 50.7325" fill="#171B1B"/>
<path d="M402.173 124.295C402.9 123.342 403.702 122.447 404.57 121.62C404.771 121.434 404.982 121.259 405.202 121.096C405.364 120.979 405.54 120.882 405.726 120.807C405.844 120.807 405.726 120.732 405.812 120.807C405.726 120.807 405.501 120.732 405.523 120.7C405.552 120.886 405.61 121.066 405.694 121.235C406.346 123.16 406.727 125.165 406.828 127.195C406.814 130.922 406.166 134.62 404.913 138.13C404.183 140.153 403.277 142.108 402.205 143.972C401.768 144.749 401.485 145.603 401.37 146.487C401.306 147.065 401.295 147.889 400.803 148.284C400.14 148.61 399.393 148.726 398.662 148.616C397.292 148.541 397.292 150.681 398.662 150.756C400.471 150.863 402.387 150.424 403.136 148.616C403.31 148.181 403.422 147.724 403.468 147.257C403.468 147.054 403.468 146.861 403.532 146.669C403.596 146.476 403.532 146.786 403.532 146.54C403.532 146.294 403.607 146.187 403.66 146.016C403.684 145.929 403.713 145.843 403.746 145.759C403.746 145.663 403.864 145.46 403.746 145.674C404.088 144.914 404.549 144.208 404.945 143.48C405.616 142.242 406.192 140.954 406.668 139.628C408.157 135.71 408.936 131.557 408.969 127.366C408.871 125.02 408.438 122.699 407.685 120.475C407.417 119.576 406.925 118.752 405.897 118.688C405.184 118.693 404.495 118.947 403.949 119.405C402.704 120.388 401.598 121.536 400.664 122.818C400.464 123.019 400.352 123.29 400.352 123.573C400.352 123.855 400.464 124.127 400.664 124.327C400.864 124.526 401.135 124.638 401.418 124.638C401.701 124.638 401.972 124.526 402.173 124.327V124.295Z" fill="#171B1B"/>
<path d="M322.887 128.115C322.121 126.415 321.212 124.782 320.169 123.236C319.264 121.687 317.978 120.394 316.434 119.48C312.784 117.747 310.804 122.69 310.355 125.419C310.062 127.126 310.005 128.864 310.183 130.587C310.381 132.074 310.819 133.519 311.478 134.867C313.309 138.976 315.471 142.924 316.83 147.247C317.078 148.245 317.586 149.16 318.302 149.898C319.018 150.637 319.917 151.173 320.908 151.452C322.509 151.822 324.186 151.679 325.702 151.045C325.838 151.008 325.965 150.944 326.076 150.858C326.187 150.772 326.28 150.665 326.35 150.542C326.419 150.42 326.464 150.285 326.482 150.146C326.499 150.006 326.489 149.865 326.451 149.729C326.414 149.593 326.351 149.466 326.265 149.355C326.178 149.244 326.071 149.151 325.949 149.082C325.826 149.012 325.692 148.967 325.552 148.95C325.412 148.932 325.271 148.943 325.135 148.98C322.941 149.879 320.116 149.815 319.077 147.225C318.692 146.262 318.457 145.246 318.093 144.283C317.729 143.32 317.29 142.271 316.851 141.287C316.027 139.382 315.117 137.52 314.229 135.659C313.556 134.391 312.998 133.066 312.559 131.7C312.273 130.444 312.176 129.153 312.271 127.869C312.298 126.328 312.595 124.803 313.148 123.364C313.398 122.765 313.762 122.221 314.218 121.759C314.388 121.58 314.587 121.432 314.807 121.321C314.893 121.321 314.807 121.267 315.032 121.267C315.31 121.267 314.764 121.267 315.032 121.267C316.305 121.428 317.536 123.182 318.296 124.284C319.369 125.844 320.297 127.499 321.068 129.228C321.139 129.35 321.233 129.456 321.345 129.541C321.457 129.627 321.585 129.689 321.721 129.725C321.857 129.761 321.999 129.769 322.139 129.75C322.278 129.731 322.413 129.684 322.534 129.613C322.656 129.542 322.763 129.448 322.848 129.336C322.933 129.224 322.996 129.096 323.031 128.96C323.067 128.824 323.076 128.682 323.057 128.542C323.037 128.403 322.991 128.269 322.92 128.147L322.887 128.115Z" fill="#171B1B"/>
<path d="M321.657 132.192C320.587 131.956 318.618 132.192 318.874 135.198C319.131 138.205 321.379 137.959 322.471 137.488" stroke="#171B1B" stroke-width="2" stroke-linecap="round"/>
<path d="M322.374 142.089C323.118 140.67 323.572 139.117 323.712 137.52C323.965 135.292 323.496 133.042 322.374 131.1C321.448 129.397 320.175 127.907 318.639 126.724C317.677 125.915 316.488 125.425 315.235 125.322C314.951 125.322 314.679 125.435 314.479 125.636C314.278 125.836 314.165 126.108 314.165 126.392C314.165 126.676 314.278 126.948 314.479 127.149C314.679 127.35 314.951 127.462 315.235 127.462C315.235 127.462 315.567 127.462 315.407 127.462C315.246 127.462 315.578 127.462 315.61 127.462L316.038 127.601C316.563 127.825 317.055 128.116 317.504 128.468C318.747 129.475 319.776 130.719 320.533 132.127C321.448 133.725 321.823 135.575 321.603 137.403C321.476 138.658 321.113 139.877 320.533 140.998C320.405 141.242 320.377 141.527 320.454 141.792C320.53 142.057 320.707 142.282 320.946 142.42C321.185 142.558 321.468 142.599 321.736 142.533C322.004 142.467 322.237 142.301 322.385 142.068L322.374 142.089Z" fill="#171B1B"/>
<path d="M400.053 141.897C399.989 141.758 400.053 142.004 400.053 141.758L399.925 141.426C399.828 141.126 399.743 140.837 399.657 140.538C399.48 139.866 399.352 139.184 399.272 138.494C399.05 136.692 399.312 134.864 400.032 133.198C400.625 131.779 401.482 130.487 402.558 129.388C402.871 129.056 403.232 128.771 403.628 128.543L403.895 128.404C403.692 128.5 403.895 128.404 403.981 128.404L404.206 128.34C404.409 128.286 403.97 128.34 404.27 128.34C404.554 128.34 404.826 128.227 405.027 128.026C405.227 127.826 405.34 127.553 405.34 127.27C405.34 126.986 405.227 126.714 405.027 126.513C404.826 126.312 404.554 126.2 404.27 126.2C403.128 126.319 402.064 126.833 401.263 127.655C399.917 128.913 398.852 130.441 398.137 132.138C397.388 133.853 397.009 135.706 397.024 137.578C397.039 139.449 397.447 141.296 398.223 142.999C398.366 143.242 398.599 143.418 398.872 143.49C399.144 143.563 399.434 143.524 399.679 143.384C399.8 143.313 399.907 143.219 399.992 143.107C400.077 142.995 400.14 142.867 400.176 142.731C400.211 142.595 400.22 142.453 400.201 142.313C400.182 142.174 400.135 142.039 400.064 141.918L400.053 141.897Z" fill="#171B1B"/>
<path d="M399.957 147.749C399.486 151.355 398.993 154.169 398.737 155.582L397.784 161.884C397.452 163.115 397.549 170.712 394.926 168.593C394.157 170.25 393.527 171.968 393.043 173.729C392.641 175.243 391.786 176.599 390.592 177.613C389.95 177.613 389.2 178.394 388.526 177.207C388.446 177.065 388.375 176.918 388.312 176.768C388.073 177.524 387.768 178.258 387.402 178.961C386.532 180.842 385.482 182.633 384.267 184.311C383.196 185.51 382.319 186.205 381.355 186.334H380.981C379.517 187.616 377.92 188.739 376.218 189.683C375.572 190.42 374.762 190.995 373.853 191.363C373.646 191.408 373.445 191.476 373.254 191.566C372.533 191.962 371.694 192.087 370.888 191.919C370.175 192.112 369.49 192.272 368.833 192.401C366.779 193.492 364.582 194.288 362.305 194.765L361.566 194.894C359.683 195.557 353.261 192.936 352.822 191.491C352.233 191.849 351.553 192.028 350.864 192.005C350.162 191.887 349.476 191.69 348.819 191.416C347.631 191.234 344.41 187.8 343.222 186.013C342.685 186.27 342.095 186.399 341.499 186.387C340.429 186.323 339.594 185.617 338.406 184.343C336.746 182.005 335.387 179.467 334.36 176.789C333.632 178.587 332.787 177.635 332.081 177.635C330.887 176.62 330.031 175.265 329.63 173.75C329.145 171.993 328.515 170.279 327.746 168.625C325.124 170.765 325.22 163.147 324.888 161.916L324.043 156.32C323.904 155.197 323.732 153.592 323.551 151.666C323.01 146.808 322.724 141.926 322.694 137.039C322.754 133.502 323.112 129.976 323.765 126.499L323.7 125.344H324.011C324.139 124.734 324.278 124.177 324.407 123.707H324.995L325.67 133.957V137.67C325.67 137.67 329.383 149.793 335.655 153.078C336.715 153.653 337.804 154.171 338.92 154.63C338.92 154.694 338.92 154.747 338.92 154.811C339.037 155.657 339.198 156.556 339.423 157.508C339.647 158.46 339.947 159.541 340.236 160.418C340.728 160.857 341.242 161.285 341.777 161.692C342.557 162.298 343.368 162.862 344.207 163.382C345.593 164.473 347.172 165.293 348.862 165.8C349.593 165.99 350.344 166.091 351.099 166.1C352.405 166.1 356.033 166.1 358.056 163.618C359.126 162.312 359.586 160.493 361.192 160.108C361.827 159.972 362.49 160.051 363.075 160.333C364.424 160.996 364.691 162.473 365.291 163.543C366.843 166.164 371.188 166.26 373.072 166.036C374.938 165.32 376.73 164.424 378.423 163.361L379.493 162.665C381.045 161.199 382.18 159.787 383.143 159.68C383.56 158.511 383.918 157.322 384.213 156.117C384.331 155.646 384.438 155.186 384.534 154.726C384.534 154.651 384.534 154.576 384.534 154.501C385.176 154.234 386.107 153.784 387.445 153.089C393.728 149.804 397.431 137.681 397.431 137.681V129.656C397.677 127.987 397.891 126.242 398.073 124.477C398.383 121.481 398.469 118.335 398.544 115.457C398.608 112.835 398.672 110.439 398.897 108.577C399.207 105.998 399.764 106.629 400.128 107.047C400.31 107.261 400.449 107.411 400.449 106.993C400.449 106.576 400.449 106.223 400.449 106.201C401.829 120.026 401.663 133.961 399.957 147.749Z" fill="#171B1B"/>
<path d="M388.656 120.753C383.304 115.853 377.792 114.825 372.366 118.303" stroke="#171B1B" stroke-width="3" stroke-linecap="round"/>
<path d="M379.537 120.368C380.607 120.571 383.176 121.438 383.294 119.662C383.294 117.715 382.566 117.522 380.083 117.361C378.146 117.222 376.444 117.008 376.326 118.068C376.38 119.662 378.563 120.229 379.537 120.368Z" fill="#171B1B"/>
<path d="M370.407 109.657C370.3 109.786 368.887 111.412 369.422 112.675C369.619 113.066 369.939 113.382 370.332 113.574C372.344 114.644 374.613 112.825 379.13 112.151C380.821 111.74 382.588 111.766 384.267 112.225C385.99 112.803 387.274 113.231 388.109 114.419C388.387 114.815 388.773 115.489 389.383 115.553C389.562 115.556 389.739 115.511 389.895 115.423C390.052 115.334 390.181 115.206 390.271 115.05C390.539 114.547 390.185 113.884 389.982 113.531C388.548 111.177 386.372 109.367 383.796 108.384C381.827 107.71 380.328 107.764 377.374 107.86C371.959 108.02 370.717 109.304 370.407 109.657Z" fill="#171B1B"/>
<path d="M333.333 121.834C338.813 116.623 344.571 115.532 350.2 119.234" stroke="#171B1B" stroke-width="3" stroke-linecap="round"/>
<path d="M341.852 120.807C340.964 121.01 338.963 121.877 338.866 120.101C338.866 118.153 339.444 117.961 341.371 117.8C342.923 117.661 344.271 117.447 344.367 118.506C344.367 120.101 342.634 120.636 341.852 120.807Z" fill="#171B1B" stroke="#171B1B"/>
<path d="M351.249 112.846C351.8 112.664 352.262 112.282 352.544 111.776C352.736 111.363 352.825 110.91 352.803 110.455C352.78 110 352.647 109.557 352.416 109.165C352.191 108.812 351.859 108.502 349.333 107.603C348.327 107.25 347.824 107.068 347.332 106.94C345.262 106.266 343.069 106.061 340.91 106.34C339.323 106.687 337.787 107.238 336.34 107.978C333.376 109.272 332.455 110.118 331.963 111.188C331.834 111.476 331.396 112.418 331.759 112.974C332.123 113.531 333.269 113.392 333.493 113.36C335.002 113.081 335.152 111.958 336.811 111.113C337.8 110.666 338.873 110.44 339.958 110.449C341.054 110.414 342.151 110.489 343.233 110.674C344.452 110.775 345.662 110.972 346.85 111.262C349.258 112.011 349.933 113.285 351.249 112.846Z" fill="#171B1B"/>
<path d="M341.477 155.625C340.407 155.047 340.867 148.616 344.356 145.481C347.846 142.346 351.517 145.171 362.219 145.342C372.569 145.502 376.807 142.945 379.429 146.166C381.698 148.958 381.238 154.191 379.911 154.779C378.84 155.25 377.77 152.425 374.677 150.446C372.258 148.884 370.674 149.183 361.438 149.312C351.185 149.461 349.408 149.151 346.711 150.917C343.404 153.078 342.248 156.053 341.477 155.625Z" fill="#171B1B"/>
<path d="M360.668 117.854C359.63 121.908 360.074 126.199 361.92 129.955C362.68 131.453 363.643 132.876 363.675 134.62C363.605 136.689 362.787 138.662 361.374 140.174C360.496 141.244 362.005 142.742 362.894 141.682C364.395 140.026 365.387 137.971 365.751 135.765C365.928 133.788 365.463 131.807 364.424 130.116C363.467 128.478 362.791 126.691 362.423 124.83C362.107 122.69 362.212 120.509 362.733 118.41C363.033 117.062 360.967 116.495 360.668 117.843V117.854Z" fill="#171B1B"/>
<path d="M358.912 139.072C358.372 138.485 357.706 138.027 356.966 137.731C356.225 137.435 355.427 137.308 354.631 137.36C353.396 137.481 352.226 137.977 351.281 138.783C351.181 138.882 351.101 139.001 351.047 139.131C350.993 139.261 350.965 139.401 350.965 139.542C350.965 139.684 350.993 139.824 351.047 139.954C351.101 140.084 351.181 140.203 351.281 140.302C351.482 140.501 351.753 140.613 352.036 140.613C352.319 140.613 352.59 140.501 352.791 140.302C352.972 140.152 352.791 140.302 352.791 140.302C352.609 140.452 352.79 140.302 352.865 140.238C353.037 140.121 353.216 140.014 353.401 139.917L353.7 139.767C353.936 139.66 353.475 139.842 353.7 139.767L353.882 139.703C354.025 139.65 354.172 139.607 354.321 139.575H354.535H354.663H354.599H355.113H355.348C355.466 139.575 355.22 139.575 355.413 139.575L355.969 139.714L356.205 139.799C356.001 139.724 356.269 139.799 356.29 139.799C356.426 139.861 356.555 139.937 356.676 140.024L356.89 140.152L356.975 140.227C357.039 140.227 356.975 140.227 356.911 140.174C357.05 140.174 357.286 140.505 357.393 140.612C357.489 140.724 357.607 140.815 357.739 140.88C357.872 140.944 358.017 140.98 358.164 140.986C358.312 140.991 358.459 140.967 358.596 140.913C358.733 140.859 358.858 140.777 358.962 140.673C359.067 140.569 359.148 140.444 359.202 140.307C359.256 140.169 359.281 140.023 359.275 139.875C359.269 139.728 359.233 139.583 359.169 139.45C359.105 139.318 359.014 139.2 358.902 139.104L358.912 139.072Z" fill="#171B1B"/>
<path d="M365.013 140.409L365.216 140.313L364.97 140.42C365.199 140.323 365.44 140.258 365.687 140.227H365.398C365.622 140.2 365.848 140.2 366.072 140.227H365.783C366.016 140.259 366.243 140.323 366.457 140.42L366.201 140.302C366.363 140.374 366.517 140.464 366.661 140.57C366.725 140.57 366.821 140.709 366.586 140.505L366.661 140.57C366.723 140.614 366.78 140.664 366.832 140.719L366.96 140.858L367.025 140.933C366.991 140.889 366.956 140.846 366.918 140.805C366.918 140.88 367.025 140.955 367.067 141.03C367.138 141.151 367.232 141.258 367.344 141.343C367.457 141.428 367.584 141.491 367.721 141.527C367.857 141.562 367.999 141.571 368.138 141.552C368.278 141.533 368.412 141.486 368.534 141.415C368.655 141.344 368.762 141.25 368.847 141.138C368.933 141.026 368.995 140.898 369.031 140.762C369.067 140.626 369.075 140.484 369.056 140.344C369.037 140.205 368.99 140.07 368.919 139.949C368.414 139.107 367.606 138.491 366.661 138.226C365.739 137.997 364.765 138.123 363.932 138.579C363.81 138.65 363.703 138.744 363.618 138.856C363.533 138.968 363.47 139.096 363.435 139.232C363.399 139.369 363.39 139.51 363.409 139.65C363.429 139.789 363.475 139.924 363.546 140.045C363.691 140.289 363.927 140.466 364.202 140.536C364.477 140.606 364.768 140.564 365.013 140.42V140.409Z" fill="#171B1B"/>
<path d="M348.124 153.399C350.695 155.787 353.834 157.478 357.243 158.31C361.651 159.232 366.245 158.436 370.086 156.085C371.56 155.201 372.931 154.157 374.174 152.971C375.18 152.019 373.661 150.51 372.665 151.452C370.441 153.619 367.717 155.206 364.735 156.074C360.84 157.06 356.715 156.484 353.24 154.469C351.946 153.741 350.736 152.873 349.633 151.88C348.617 150.959 347.097 152.468 348.124 153.388V153.399Z" fill="#171B1B"/>
<path d="M349.591 153.699C357.361 153.506 365.138 153.367 372.923 153.281C373.206 153.281 373.479 153.169 373.679 152.968C373.88 152.767 373.993 152.495 373.993 152.211C373.993 151.928 373.88 151.655 373.679 151.455C373.479 151.254 373.206 151.141 372.923 151.141C365.145 151.227 357.368 151.366 349.591 151.559C349.307 151.559 349.035 151.671 348.834 151.872C348.633 152.073 348.521 152.345 348.521 152.629C348.521 152.912 348.633 153.185 348.834 153.385C349.035 153.586 349.307 153.699 349.591 153.699Z" fill="#171B1B"/>
</svg>
